HIERARCHY
ROOT Hips
{
    OFFSET   0.000000   0.000000   0.000000
    CHANNELS 6 Xposition Yposition Zposition Zrotation Xrotation Yrotation
    JOINT Chest
    {
        OFFSET   0.000000   8.007230   0.000000
        CHANNELS 3 Zrotation Xrotation Yrotation
        JOINT Chest2
        {
            OFFSET   0.000000  22.077100   0.000000
            CHANNELS 3 Zrotation Xrotation Yrotation
            JOINT Neck
            {
                OFFSET   0.000000  23.254800   0.000000
                CHANNELS 3 Zrotation Xrotation Yrotation
                JOINT Head
                {
                    OFFSET   0.000010  14.370000   1.956600
                    CHANNELS 3 Zrotation Xrotation Yrotation
                    End Site
                    {
                        OFFSET   0.000000  19.566000   0.000000
                    }
                }
            }
            JOINT LeftCollar
            {
                OFFSET   3.911900  19.017000  -0.467062
                CHANNELS 3 Zrotation Xrotation Yrotation
                JOINT LeftShoulder
                {
                    OFFSET  10.383700   0.000000   0.000000
                    CHANNELS 3 Zrotation Xrotation Yrotation
                    JOINT LeftElbow
                    {
                        OFFSET  26.662100   0.001193   0.000835
                        CHANNELS 3 Zrotation Xrotation Yrotation
                        JOINT LeftWrist
                        {
                            OFFSET  28.869000  -0.000058  -0.000075
                            CHANNELS 3 Zrotation Xrotation Yrotation
                            JOINT LeftFinger0
                            {
                                OFFSET   2.044660  -2.323460   3.252850
                                CHANNELS 3 Zrotation Xrotation Yrotation
                                JOINT LeftFinger01
                                {
                                    OFFSET   3.088130   0.000000   0.000000
                                    CHANNELS 3 Zrotation Xrotation Yrotation
                                    JOINT LeftFinger02
                                    {
                                        OFFSET   2.639450   0.000000   0.000000
                                        CHANNELS 3 Zrotation Xrotation Yrotation
                                        End Site
                                        {
                                            OFFSET   2.582190   0.000000   0.000000
                                        }
                                    }
                                }
                            }
                            JOINT LeftFinger1
                            {
                                OFFSET   8.364480   0.000000   3.252850
                                CHANNELS 3 Zrotation Xrotation Yrotation
                                JOINT LeftFinger11
                                {
                                    OFFSET   4.646920   0.000000   0.000000
                                    CHANNELS 3 Zrotation Xrotation Yrotation
                                    JOINT LeftFinger12
                                    {
                                        OFFSET   2.323460   0.000000   0.000000
                                        CHANNELS 3 Zrotation Xrotation Yrotation
                                        End Site
                                        {
                                            OFFSET   2.273050   0.000000   0.000000
                                        }
                                    }
                                }
                            }
                            JOINT LeftFinger2
                            {
                                OFFSET   8.364490   0.000016   1.078090
                                CHANNELS 3 Zrotation Xrotation Yrotation
                                JOINT LeftFinger21
                                {
                                    OFFSET   5.111620   0.000000   0.000000
                                    CHANNELS 3 Zrotation Xrotation Yrotation
                                    JOINT LeftFinger22
                                    {
                                        OFFSET   2.788150   0.000012   0.000000
                                        CHANNELS 3 Zrotation Xrotation Yrotation
                                        End Site
                                        {
                                            OFFSET   2.727660   0.000000   0.000000
                                        }
                                    }
                                }
                            }
                            JOINT LeftFinger3
                            {
                                OFFSET   7.899780   0.000014  -1.078090
                                CHANNELS 3 Zrotation Xrotation Yrotation
                                JOINT LeftFinger31
                                {
                                    OFFSET   4.646930   0.000000   0.000000
                                    CHANNELS 3 Zrotation Xrotation Yrotation
                                    JOINT LeftFinger32
                                    {
                                        OFFSET   2.323470   0.000000   0.000000
                                        CHANNELS 3 Zrotation Xrotation Yrotation
                                        End Site
                                        {
                                            OFFSET   2.273050   0.000000   0.000000
                                        }
                                    }
                                }
                            }
                            JOINT LeftFinger4
                            {
                                OFFSET   7.435090   0.000000  -3.252850
                                CHANNELS 3 Zrotation Xrotation Yrotation
                                JOINT LeftFinger41
                                {
                                    OFFSET   3.717550   0.000000   0.000000
                                    CHANNELS 3 Zrotation Xrotation Yrotation
                                    JOINT LeftFinger42
                                    {
                                        OFFSET   1.858770   0.000000   0.000000
                                        CHANNELS 3 Zrotation Xrotation Yrotation
                                        End Site
                                        {
                                            OFFSET   1.818440   0.000000   0.000000
                                        }
                                    }
                                }
                            }
                        }
                    }
                }
            }
            JOINT RightCollar
            {
                OFFSET  -3.911900  19.017000  -0.467063
                CHANNELS 3 Zrotation Xrotation Yrotation
                JOINT RightShoulder
                {
                    OFFSET -10.383700   0.000023   0.000000
                    CHANNELS 3 Zrotation Xrotation Yrotation
                    JOINT RightElbow
                    {
                        OFFSET -26.662100   0.001246   0.001011
                        CHANNELS 3 Zrotation Xrotation Yrotation
                        JOINT RightWrist
                        {
                            OFFSET -28.869000  -0.000026  -0.000078
                            CHANNELS 3 Zrotation Xrotation Yrotation
                            JOINT RightFinger0
                            {
                                OFFSET  -2.044660  -2.323490   3.252850
                                CHANNELS 3 Zrotation Xrotation Yrotation
                                JOINT RightFinger01
                                {
                                    OFFSET  -3.088130   0.000000   0.000000
                                    CHANNELS 3 Zrotation Xrotation Yrotation
                                    JOINT RightFinger02
                                    {
                                        OFFSET  -2.639460   0.000000   0.000000
                                        CHANNELS 3 Zrotation Xrotation Yrotation
                                        End Site
                                        {
                                            OFFSET  -2.582190   0.000000   0.000000
                                        }
                                    }
                                }
                            }
                            JOINT RightFinger1
                            {
                                OFFSET  -8.364480   0.000000   3.252850
                                CHANNELS 3 Zrotation Xrotation Yrotation
                                JOINT RightFinger11
                                {
                                    OFFSET  -4.646920   0.000000   0.000000
                                    CHANNELS 3 Zrotation Xrotation Yrotation
                                    JOINT RightFinger12
                                    {
                                        OFFSET  -2.323470   0.000000   0.000000
                                        CHANNELS 3 Zrotation Xrotation Yrotation
                                        End Site
                                        {
                                            OFFSET  -2.273050   0.000000   0.000000
                                        }
                                    }
                                }
                            }
                            JOINT RightFinger2
                            {
                                OFFSET  -8.364480   0.000000   1.078090
                                CHANNELS 3 Zrotation Xrotation Yrotation
                                JOINT RightFinger21
                                {
                                    OFFSET  -5.111620   0.000000   0.000000
                                    CHANNELS 3 Zrotation Xrotation Yrotation
                                    JOINT RightFinger22
                                    {
                                        OFFSET  -2.788160   0.000000   0.000000
                                        CHANNELS 3 Zrotation Xrotation Yrotation
                                        End Site
                                        {
                                            OFFSET  -2.727660   0.000000   0.000000
                                        }
                                    }
                                }
                            }
                            JOINT RightFinger3
                            {
                                OFFSET  -7.899780   0.000000  -1.078090
                                CHANNELS 3 Zrotation Xrotation Yrotation
                                JOINT RightFinger31
                                {
                                    OFFSET  -4.646930   0.000000   0.000000
                                    CHANNELS 3 Zrotation Xrotation Yrotation
                                    JOINT RightFinger32
                                    {
                                        OFFSET  -2.323470   0.000000   0.000000
                                        CHANNELS 3 Zrotation Xrotation Yrotation
                                        End Site
                                        {
                                            OFFSET  -2.273050   0.000000   0.000000
                                        }
                                    }
                                }
                            }
                            JOINT RightFinger4
                            {
                                OFFSET  -7.435090   0.000000  -3.252850
                                CHANNELS 3 Zrotation Xrotation Yrotation
                                JOINT RightFinger41
                                {
                                    OFFSET  -3.717550   0.000000   0.000000
                                    CHANNELS 3 Zrotation Xrotation Yrotation
                                    JOINT RightFinger42
                                    {
                                        OFFSET  -1.858760   0.000000   0.000000
                                        CHANNELS 3 Zrotation Xrotation Yrotation
                                        End Site
                                        {
                                            OFFSET  -1.818440   0.000000   0.000000
                                        }
                                    }
                                }
                            }
                        }
                    }
                }
            }
        }
    }
    JOINT LeftHip
    {
        OFFSET   9.783010   0.000000   0.000000
        CHANNELS 3 Zrotation Xrotation Yrotation
        JOINT LeftKnee
        {
            OFFSET   0.000073 -41.789100   0.001749
            CHANNELS 3 Zrotation Xrotation Yrotation
            JOINT LeftAnkle
            {
                OFFSET   0.000111 -41.133200  -0.000179
                CHANNELS 3 Zrotation Xrotation Yrotation
                JOINT LeftToe
                {
                    OFFSET   0.000000  -6.358960  14.674500
                    CHANNELS 3 Zrotation Xrotation Yrotation
                    End Site
                    {
                        OFFSET   0.000000   0.000000   3.913200
                    }
                }
            }
        }
    }
    JOINT RightHip
    {
        OFFSET  -9.783010   0.000000   0.000000
        CHANNELS 3 Zrotation Xrotation Yrotation
        JOINT RightKnee
        {
            OFFSET   0.000424 -41.789200   0.005205
            CHANNELS 3 Zrotation Xrotation Yrotation
            JOINT RightAnkle
            {
                OFFSET   0.000000 -41.133200  -0.000155
                CHANNELS 3 Zrotation Xrotation Yrotation
                JOINT RightToe
                {
                    OFFSET   0.000000  -6.358960  14.674500
                    CHANNELS 3 Zrotation Xrotation Yrotation
                    End Site
                    {
                        OFFSET   0.000000   0.000000   3.913200
                    }
                }
            }
        }
    }
}
MOTION
Frames: 6
Frame Time:   0.016667
  0.198317  89.325900  -0.583299  -8.720100 -22.176700 -10.133700   1.503990  12.175100  -1.023600   3.354050  24.315600  -2.469340   2.862370   1.562420  -0.077981   4.712400   3.144700   8.581140  -4.128530  -4.080620  -1.589000 -43.968900  10.097900 -60.883300  25.737300  -8.354720 -63.189800 -26.889400  -1.847160  12.615100  57.599800  34.649500 -56.880500  24.579500  -0.005518   0.002649  15.002400  -0.005376   0.000183 -88.996200   5.001150  -0.087594 -88.804200  -0.007309  -0.077800 -66.603100   0.054339  -0.021335 -89.000200   0.000000  -0.003701 -103.916000   0.005828  -0.018456 -77.936800   0.014640  -0.001602 -88.996500  -5.004180   0.083848 -110.000000  -0.003290   0.001026 -80.000000  -0.000167   0.006037 -88.984600  -9.998470   0.176315 -110.000000  -0.001390   0.000310 -80.000000  -0.001340   0.000737   7.007170  -4.574380   9.218570  17.326500   9.593590  53.151600 -44.611700  -6.671640  61.250400 -19.910500  39.426500  -4.188540 -59.040400  54.333200 108.293000  10.250600  -0.029220  -0.004918   0.125291  -0.016830  -0.001032  82.565600   4.962010   0.645863  67.576500  -0.000180  -0.000510  50.682400   0.005427   0.002832  86.240500   0.002483  -0.007852  86.240400  -0.006504   0.001305  64.680300   0.002047  -0.002292  88.993400  -4.996510  -0.082994  89.630100  -0.008973  -0.000364  67.222600  -0.001241   0.000429  88.984600  -9.999280  -0.176310 110.000000   0.000197   0.003052  80.000000   0.003516   0.007835   5.215530  25.005200   1.934530   0.550634   1.277400  14.632900  -1.449720  -3.624800   0.490046  -0.000000   0.000000   0.000000   8.418320  17.693300  -1.900020  -3.663530  12.185300 -14.757500   2.312390  -6.825410   9.778360   0.000000   0.000000  -0.000000
  0.194138  89.320100  -0.561957  -8.749690 -22.130900 -10.231100   1.513330  12.144100  -1.052080   3.378650  24.252500  -2.529020   2.734820   1.437640  -0.068510   4.501120   2.895630   8.763110  -4.207060  -4.051740  -1.585000 -44.326000  10.026000 -60.838100  25.192100  -9.223420 -62.867800 -29.510300  -4.297650  12.454100  59.316500  35.956300 -58.159000  24.769100  -0.005013   0.002396  15.002300  -0.005476   0.000180 -88.996200   5.001060  -0.087596 -91.022900  -0.009087  -0.035741 -68.267100   0.024477  -0.011234 -89.000200   0.000000  -0.003866 -104.570000   0.006157  -0.015976 -78.427800   0.012639  -0.001477 -88.996500  -5.004140   0.084036 -110.000000  -0.003372   0.000945 -80.000000  -0.000165   0.006097 -88.984600  -9.998460   0.176317 -110.000000  -0.001396   0.000290 -80.000000  -0.001289   0.000725   7.123310  -4.456010   9.301500  17.072900   9.817440  53.061000 -44.876700  -6.811060  61.033900 -22.675200  39.483100  -2.550420 -59.040400  54.333200 108.293000   8.768530  -0.028212  -0.004924  -0.615740  -0.013998  -0.001121  82.698200   4.962780   0.634524  67.684600  -0.000152  -0.000426  50.763500   0.005660   0.003204  86.522900   0.002390  -0.008066  86.522900  -0.006585   0.001444  64.892200   0.002108  -0.002259  88.993200  -4.996620  -0.083107  89.797800  -0.009140  -0.000293  67.348400  -0.001138   0.000508  88.984600  -9.999240  -0.176306 110.000000   0.000228   0.003119  80.000000   0.003629   0.007923   5.210470  24.996800   1.959110   0.544869   1.280800  14.673900  -1.445240  -3.653380   0.522450  -0.000000   0.000000   0.000000   8.429030  17.641300  -1.889870  -3.686740  12.230500 -14.684500   2.315350  -6.841060   9.795940  -0.000000   0.000000   0.000000
  0.190738  89.314300  -0.537556  -8.781170 -22.091800 -10.330600   1.521000  12.107900  -1.078050   3.398930  24.179200  -2.582880   2.614280   1.323580  -0.060316   4.301530   2.667440   8.925000  -4.283240  -4.006250  -1.579540 -44.639800   9.941640 -60.827200  24.720300 -10.072800 -62.475900 -32.408800  -6.700990  11.970600  60.333000  36.801600 -59.878400  24.732000  -0.004494   0.002063  15.002200  -0.005581   0.000176 -88.996200   5.000950  -0.087584 -92.176900  -0.006719   0.001781 -69.132600  -0.002114  -0.001867 -89.000200   0.000000  -0.004026 -105.068000   0.004370  -0.008253 -78.801100   0.006569  -0.001325 -88.996500  -5.004100   0.084225 -110.000000  -0.003439   0.000858 -80.000000  -0.000156   0.006152 -88.984600  -9.998460   0.176310 -110.000000  -0.001412   0.000274 -80.000000  -0.001250   0.000703   7.261220  -4.335090   9.349980  16.745200  10.070200  53.034200 -45.064600  -7.006330  60.775700 -25.297600  39.331700  -0.879472 -59.040400  54.333200 108.293000   7.547170  -0.019612  -0.004634  -1.226420  -0.008512  -0.001201  82.918100   4.963540   0.615566  67.863900  -0.000116  -0.000344  50.898000   0.005901   0.003568  86.850300   0.002281  -0.008275  86.850300  -0.006671   0.001586  65.137700   0.002160  -0.002222  88.992900  -4.996730  -0.083240  90.115200  -0.009291  -0.000246  67.586400  -0.001033   0.000586  88.984600  -9.999200  -0.176295 110.000000   0.000254   0.003191  80.000000   0.003750   0.008021   5.200100  24.991100   1.986120   0.539916   1.291960  14.711400  -1.439620  -3.684450   0.557997   0.000000   0.000000   0.000000   8.431370  17.595000  -1.871810  -3.702820  12.273400 -14.616300   2.313630  -6.851530   9.812210  -0.000000   0.000000  -0.000000
  0.187549  89.308600  -0.511262  -8.812270 -22.058000 -10.426400   1.528920  12.071700  -1.104330   3.419750  24.105800  -2.637400   2.497940   1.216080  -0.053003   4.109000   2.452040   9.076730  -4.355870  -3.961970  -1.575480 -44.915400   9.843110 -60.837200  24.269700 -10.899200 -62.043200 -35.372300  -8.890270  11.270000  61.144900  37.387600 -61.764300  24.695000  -0.003974   0.001805  15.002200  -0.005687   0.000173 -88.996200   5.000840  -0.087568 -92.656400  -0.002726   0.023388 -69.492200  -0.017414   0.003606 -89.000200   0.000000  -0.004183 -105.416000   0.001798  -0.002175 -79.062300   0.001801  -0.001154 -88.996500  -5.004060   0.084413 -110.000000  -0.003501   0.000772 -80.000000  -0.000143   0.006204 -88.984600  -9.998460   0.176303 -110.000000  -0.001431   0.000259 -80.000000  -0.001213   0.000683   7.405760  -4.218980   9.389180  16.427100  10.296200  53.017400 -45.194400  -7.212390  60.540100 -27.723700  39.038500   0.722450 -59.040400  54.333200 108.293000   6.460220  -0.009484  -0.004157  -1.769880  -0.004638  -0.001282  83.138900   4.964360   0.596525  68.043900  -0.000078  -0.000263  51.033000   0.006134   0.003927  87.165900   0.002168  -0.008483  87.165900  -0.006757   0.001729  65.374400   0.002209  -0.002189  88.992800  -4.996850  -0.083380  90.453900  -0.009440  -0.000204  67.840400  -0.000927   0.000661  88.984600  -9.999160  -0.176286 110.000000   0.000281   0.003258  80.000000   0.003871   0.008117   5.190400  24.988600   2.010950   0.534647   1.308080  14.747400  -1.433430  -3.717540   0.593062  -0.000000   0.000000   0.000000   8.433250  17.569800  -1.852440  -3.715320  12.297900 -14.559000   2.308870  -6.859180   9.831990  -0.000000   0.000000   0.000000
  0.183703  89.303900  -0.483557  -8.843810 -22.030400 -10.511600   1.538710  12.040900  -1.133130   3.445200  24.042900  -2.697760   2.383370   1.112490  -0.046238   3.919740   2.244280   9.225590  -4.425630  -3.941200  -1.574840 -45.146300   9.720580 -60.866000  23.758800 -11.691100 -61.573000 -38.162600 -10.688300  10.449000  62.237100  38.138700 -63.580700  24.695000  -0.003462   0.001741  15.002100  -0.005793   0.000175 -88.996200   5.000730  -0.087563 -91.718900   0.001408   0.002407 -68.789200  -0.001172   0.003578 -89.000200   0.000000  -0.004336 -105.568000   0.000684  -0.001504 -79.174000   0.001296  -0.000965 -88.996400  -5.004010   0.084601 -110.000000  -0.003571   0.000696 -80.000000  -0.000132   0.006252 -88.984600  -9.998460   0.176313 -110.000000  -0.001447   0.000236 -80.000000  -0.001169   0.000675   7.552750  -4.115330   9.438990  16.216500  10.424000  52.947800 -45.269400  -7.369280  60.440000 -29.864300  38.779300   2.140920 -59.040400  54.333200 108.293000   5.376790  -0.007087  -0.003791  -2.311600  -0.004572  -0.001371  83.275500   4.965130   0.584737  68.155200  -0.000029  -0.000189  51.116500   0.006342   0.004291  87.416300   0.002060  -0.008697  87.416300  -0.006839   0.001869  65.562200   0.002260  -0.002165  88.992600  -4.996960  -0.083520  90.672800  -0.009595  -0.000157  68.004600  -0.000822   0.000731  88.984600  -9.999130  -0.176295 110.000000   0.000319   0.003308  80.000000   0.003982   0.008203   5.185400  24.991300   2.027210   0.529192   1.326270  14.783800  -1.427120  -3.752870   0.624602   0.000000   0.000000   0.000000   8.442350  17.568400  -1.836810  -3.723840  12.298900 -14.527200   2.300920  -6.864550   9.863270   0.000000   0.000000  -0.000000
  0.180134  89.299900  -0.455358  -8.876410 -22.005200 -10.589700   1.550820  12.010900  -1.163580   3.475830  23.981700  -2.762070   2.271000   1.013030  -0.040071   3.734320   2.044570   9.368910  -4.488030  -3.923190  -1.574720 -45.353700   9.583610 -60.900700  23.275400 -12.412500 -61.100600 -40.723500 -12.165200   9.540930  63.340200  38.837900 -65.320000  24.695000  -0.002956   0.001732  15.002000  -0.005898   0.000176 -88.996200   5.000630  -0.087560 -90.781500   0.003915  -0.018573 -68.086200   0.015070   0.003551 -89.000200   0.000000  -0.004484 -105.684000  -0.000116  -0.001297 -79.262800   0.001130  -0.000764 -88.996400  -5.003960   0.084788 -110.000000  -0.003636   0.000622 -80.000000  -0.000119   0.006296 -88.984600  -9.998450   0.176323 -110.000000  -0.001460   0.000220 -80.000000  -0.001121   0.000666   7.688890  -4.013890   9.490540  16.065400  10.499500  52.870400 -45.318400  -7.492450  60.386500 -31.804900  38.513800   3.427570 -59.040400  54.333300 108.293000   4.439610  -0.006296  -0.003422  -2.780190  -0.004562  -0.001465  83.332800   4.965930   0.579791  68.201900   0.000000  -0.000110  51.151500   0.006545   0.004643  87.626400   0.001955  -0.008908  87.626400  -0.006923   0.002008  65.719800   0.002312  -0.002143  88.992400  -4.997070  -0.083661  90.849300  -0.009752  -0.000107  68.137000  -0.000723   0.000795  88.984600  -9.999100  -0.176303 110.000000   0.000357   0.003355  80.000000   0.004091   0.008286   5.184060  24.996000   2.041360   0.523755   1.344480  14.818400  -1.420500  -3.788590   0.652330  -0.000000   0.000000  -0.000000   8.453210  17.568300  -1.824270  -3.729900  12.295600 -14.505200   2.293550  -6.869240   9.897390   0.000000   0.000000   0.000000
